<?xml version="1.0" encoding="UTF-8"?>
<svg xmlns="http://www.w3.org/2000/svg" xmlns:xlink="http://www.w3.org/1999/xlink" width="512pt" height="512pt" viewBox="0 0 512 512" version="1.1">
<g id="surface1">
<path style=" stroke:none;fill-rule:nonzero;fill:rgb(48%,48%,48%);fill-opacity:1;" d="M 235.519531 292.609375 C 241.769531 304.496094 244.351562 312.511719 249 326.785156 C 251.71875 334.65625 254.304688 337.039062 259.742188 337.039062 C 265.679688 337.039062 268.398438 333.03125 270.480469 326.785156 C 274.824219 313.304688 278.175781 303.046875 283.480469 293.246094 C 293.910156 274.480469 307.0625 257.777344 319.910156 241.726562 C 323.441406 237.230469 345.910156 210.753906 356.015625 189.734375 C 356.015625 189.734375 368.382812 166.785156 368.382812 134.6875 C 368.382812 104.679688 356.191406 83.832031 356.191406 83.832031 C 353.839844 84.464844 342.078125 87.625 320.902344 93.304688 L 299.398438 149.792969 L 294.097656 157.488281 L 292.976562 158.9375 L 291.527344 160.710938 L 289.121094 163.609375 L 285.585938 167.136719 L 266.496094 182.695312 L 218.839844 210.296875 L 210.96875 256.351562 C 223.921875 274.433594 232.105469 286.519531 235.519531 292.609375 Z M 235.519531 292.609375 "/>
<path style=" stroke:none;fill-rule:nonzero;fill:rgb(73%,73%,73%);fill-opacity:1;" d="M 210.96875 256.351562 C 219.039062 246.792969 283.609375 170.28125 291.679688 160.710938 C 291.679688 160.710938 280.28125 175.640625 259.742188 175.640625 C 236.792969 175.640625 218.175781 157.359375 218.175781 134.230469 C 218.175781 118.335938 227.648438 107.449219 227.648438 107.449219 C 224 108.414062 205.761719 113.289062 172.9375 122.046875 L 161.710938 185.894531 C 184.390625 219.175781 200.816406 242.664062 210.96875 256.351562 Z M 210.96875 256.351562 "/>
<path style=" stroke:none;fill-rule:nonzero;fill:rgb(49%,49%,49%);fill-opacity:1;" d="M 356.191406 84.007812 C 349.742188 91.695312 298.136719 153.175781 291.679688 160.863281 C 291.679688 160.863281 301.152344 149.792969 301.152344 134.078125 C 301.152344 110.496094 281.246094 92.671875 259.742188 92.671875 C 239.351562 92.671875 227.648438 107.425781 227.648438 107.425781 L 227.648438 58.976562 L 292.648438 30.414062 C 325.808594 48.273438 346.984375 66.136719 356.191406 84.007812 Z M 356.191406 84.007812 "/>
<path style=" stroke:none;fill-rule:nonzero;fill:rgb(40%,40%,40%);fill-opacity:1;" d="M 259.40625 25.464844 C 278.175781 25.464844 292.464844 30.441406 292.464844 30.441406 C 288.144531 35.574219 266.542969 61.257812 227.648438 107.472656 L 181.742188 107.472656 L 176.464844 64.289062 C 205.878906 38.40625 233.527344 25.464844 259.40625 25.464844 Z M 259.40625 25.464844 "/>
<path style=" stroke:none;fill-rule:nonzero;fill:rgb(45%,45%,45%);fill-opacity:1;" d="M 151.128906 134.558594 C 151.128906 105.847656 162.34375 80.816406 176.640625 64.441406 C 180.054688 67.3125 197.121094 81.703125 227.824219 107.601562 L 161.710938 185.894531 C 154.65625 171.878906 151.128906 154.769531 151.128906 134.558594 Z M 151.128906 134.558594 "/>
</g>
</svg>
