<svg xmlns="http://www.w3.org/2000/svg" viewBox="0 0 24 24"><title>Twitter icon</title><path d="M23.95 4.57c-.88.4-1.83.65-2.82.77 1-.6 1.8-1.57 2.16-2.72-.97.56-2 .96-3.14 1.2-.9-.97-2.18-1.57-3.6-1.57-2.7 0-4.92 2.2-4.92 4.9 0 .4.05.78.13 1.14-4.1-.2-7.7-2.18-10.14-5.15C1.2 3.87.96 4.7.96 5.63c0 1.7.87 3.2 2.2 4.1-.8-.03-1.57-.26-2.24-.62v.07c0 2.38 1.7 4.37 3.95 4.82-.4.1-.85.16-1.3.16-.3 0-.6-.03-.9-.08.62 1.94 2.43 3.37 4.6 3.4-1.7 1.33-3.82 2.1-6.1 2.1-.4 0-.8 0-1.18-.06 2.2 1.4 4.76 2.2 7.55 2.2 9.05 0 14-7.48 14-13.97 0-.2 0-.42-.02-.63.96-.7 1.8-1.56 2.46-2.55l-.06-.03z"/></svg>